<svg xmlns="http://www.w3.org/2000/svg" xmlns:xlink="http://www.w3.org/1999/xlink" width="100" zoomAndPan="magnify" viewBox="0 0 75 74.999997" height="100" preserveAspectRatio="xMidYMid meet" version="1.0"><defs><g/><clipPath id="ac6b43bf98"><path d="M 13.464844 29.4375 L 55 29.4375 L 55 42.660156 L 13.464844 42.660156 Z M 13.464844 29.4375 " clip-rule="nonzero"/></clipPath><clipPath id="738848e48b"><path d="M 37 29.4375 L 61.535156 29.4375 L 61.535156 42.660156 L 37 42.660156 Z M 37 29.4375 " clip-rule="nonzero"/></clipPath></defs><g clip-path="url(#ac6b43bf98)"><path fill="#ffffff" d="M 14.195312 43.109375 L 33.804688 30.425781 C 33.804688 30.425781 53.410156 43.109375 53.410156 43.109375 C 53.613281 43.242188 53.882812 43.183594 54.015625 42.980469 C 54.148438 42.777344 54.089844 42.507812 53.886719 42.375 C 53.886719 42.375 34.042969 29.539062 34.042969 29.539062 C 33.894531 29.445312 33.710938 29.445312 33.566406 29.539062 C 33.566406 29.539062 13.71875 42.375 13.71875 42.375 C 13.515625 42.507812 13.460938 42.777344 13.589844 42.980469 C 13.722656 43.183594 13.992188 43.242188 14.195312 43.109375 Z M 14.195312 43.109375 " fill-opacity="1" fill-rule="evenodd"/></g><g clip-path="url(#738848e48b)"><path fill="#ffffff" d="M 38.652344 33.019531 L 42.257812 30.6875 C 42.257812 30.6875 60.792969 42.847656 60.792969 42.847656 C 60.996094 42.980469 61.269531 42.925781 61.402344 42.722656 C 61.53125 42.519531 61.476562 42.25 61.273438 42.117188 C 61.273438 42.117188 42.5 29.796875 42.5 29.796875 C 42.355469 29.703125 42.167969 29.703125 42.019531 29.796875 C 42.019531 29.796875 40.425781 30.828125 38.175781 32.285156 C 37.972656 32.417969 37.914062 32.6875 38.046875 32.890625 C 38.175781 33.09375 38.449219 33.152344 38.652344 33.019531 Z M 38.652344 33.019531 " fill-opacity="1" fill-rule="evenodd"/></g><path fill="#ffffff" d="M 24.847656 35.828125 L 24.847656 32.519531 C 24.847656 32.28125 24.648438 32.085938 24.410156 32.085938 L 20.761719 32.085938 C 20.519531 32.085938 20.324219 32.28125 20.324219 32.519531 L 20.324219 38.34375 C 20.324219 38.582031 20.519531 38.777344 20.761719 38.777344 C 21 38.777344 21.199219 38.582031 21.199219 38.34375 L 21.199219 32.957031 C 21.199219 32.957031 23.972656 32.957031 23.972656 32.957031 L 23.972656 35.828125 C 23.972656 36.070312 24.167969 36.265625 24.410156 36.265625 C 24.648438 36.265625 24.847656 36.070312 24.847656 35.828125 Z M 24.847656 35.828125 " fill-opacity="1" fill-rule="evenodd"/><g fill="#ffffff" fill-opacity="1"><g transform="translate(8.109718, 38.038489)"><g><path d="M 0.4375 -3.328125 C 0.382812 -2.773438 0.234375 -2.3125 -0.015625 -1.9375 C -0.273438 -1.570312 -0.617188 -1.300781 -1.046875 -1.125 C -1.484375 -0.945312 -1.976562 -0.882812 -2.53125 -0.9375 L -6.265625 -1.28125 L -6.125 -2.703125 L -2.5 -2.375 C -1.53125 -2.28125 -1.007812 -2.640625 -0.9375 -3.453125 C -0.863281 -4.265625 -1.3125 -4.71875 -2.28125 -4.8125 L -5.90625 -5.140625 L -5.78125 -6.5625 L -2.046875 -6.21875 C -1.492188 -6.164062 -1.019531 -6.015625 -0.625 -5.765625 C -0.226562 -5.523438 0.0546875 -5.195312 0.234375 -4.78125 C 0.421875 -4.363281 0.488281 -3.878906 0.4375 -3.328125 Z M 0.4375 -3.328125 "/></g></g></g><g fill="#ffffff" fill-opacity="1"><g transform="translate(8.867957, 31.051948)"><g><path d="M 0.234375 -0.734375 L -5.828125 -2.65625 L -5.390625 -4.015625 L -0.625 -2.5 L 0.203125 -5.15625 L 1.5 -4.75 Z M 0.234375 -0.734375 "/></g></g></g><g fill="#ffffff" fill-opacity="1"><g transform="translate(10.547454, 25.732307)"><g><path d="M 1.109375 -1.984375 L -3.25 -4.421875 L -4.234375 -2.671875 L -5.421875 -3.34375 L -2.734375 -8.125 L -1.546875 -7.453125 L -2.53125 -5.703125 L 1.828125 -3.265625 Z M 1.109375 -1.984375 "/></g></g></g><g fill="#ffffff" fill-opacity="1"><g transform="translate(13.647769, 20.222759)"><g><path d="M 0.515625 -0.5625 L -4.21875 -4.8125 L -2.40625 -6.84375 C -2.082031 -7.195312 -1.734375 -7.445312 -1.359375 -7.59375 C -0.984375 -7.738281 -0.609375 -7.773438 -0.234375 -7.703125 C 0.140625 -7.628906 0.488281 -7.445312 0.8125 -7.15625 C 1.164062 -6.832031 1.394531 -6.476562 1.5 -6.09375 C 1.601562 -5.707031 1.59375 -5.316406 1.46875 -4.921875 L 3.984375 -4.4375 L 2.875 -3.1875 L 0.640625 -3.671875 L 0 -2.96875 L 1.46875 -1.640625 Z M -0.90625 -3.765625 L -0.1875 -4.578125 C 0.0625 -4.847656 0.1875 -5.109375 0.1875 -5.359375 C 0.195312 -5.609375 0.0820312 -5.835938 -0.15625 -6.046875 C -0.382812 -6.253906 -0.625 -6.34375 -0.875 -6.3125 C -1.125 -6.28125 -1.375 -6.128906 -1.625 -5.859375 L -2.34375 -5.046875 Z M -0.90625 -3.765625 "/></g></g></g><g fill="#ffffff" fill-opacity="1"><g transform="translate(18.122282, 15.274714)"><g><path d="M 0.0625 -0.046875 L -1.484375 -6.703125 L -0.328125 -7.515625 L 5.375 -3.734375 L 4.109375 -2.84375 L 3.140625 -3.5 L 1.0625 -2.0625 L 1.328125 -0.921875 Z M 0.703125 -3.203125 L 2.1875 -4.234375 L 0.109375 -5.640625 Z M 0.703125 -3.203125 "/></g></g></g><g fill="#ffffff" fill-opacity="1"><g transform="translate(24.041908, 11.434561)"><g/></g></g><g fill="#ffffff" fill-opacity="1"><g transform="translate(26.284314, 10.163)"><g><path d="M 3.578125 -0.84375 C 2.960938 -0.675781 2.375 -0.660156 1.8125 -0.796875 C 1.257812 -0.941406 0.785156 -1.21875 0.390625 -1.625 C -0.00390625 -2.03125 -0.285156 -2.546875 -0.453125 -3.171875 C -0.628906 -3.804688 -0.648438 -4.394531 -0.515625 -4.9375 C -0.378906 -5.488281 -0.109375 -5.960938 0.296875 -6.359375 C 0.703125 -6.765625 1.21875 -7.050781 1.84375 -7.21875 C 2.351562 -7.351562 2.847656 -7.378906 3.328125 -7.296875 C 3.816406 -7.222656 4.257812 -7.039062 4.65625 -6.75 C 5.050781 -6.46875 5.375 -6.101562 5.625 -5.65625 L 4.1875 -5.25 C 3.976562 -5.5625 3.695312 -5.773438 3.34375 -5.890625 C 3 -6.003906 2.632812 -6.007812 2.25 -5.90625 C 1.894531 -5.800781 1.601562 -5.632812 1.375 -5.40625 C 1.144531 -5.1875 0.992188 -4.914062 0.921875 -4.59375 C 0.847656 -4.269531 0.863281 -3.921875 0.96875 -3.546875 C 1.0625 -3.179688 1.222656 -2.878906 1.453125 -2.640625 C 1.679688 -2.398438 1.953125 -2.238281 2.265625 -2.15625 C 2.578125 -2.070312 2.90625 -2.078125 3.25 -2.171875 C 3.644531 -2.285156 3.96875 -2.488281 4.21875 -2.78125 C 4.46875 -3.070312 4.609375 -3.410156 4.640625 -3.796875 L 6.078125 -4.1875 C 6.117188 -3.65625 6.035156 -3.164062 5.828125 -2.71875 C 5.628906 -2.269531 5.335938 -1.878906 4.953125 -1.546875 C 4.578125 -1.222656 4.117188 -0.988281 3.578125 -0.84375 Z M 3.578125 -0.84375 "/></g></g></g><g fill="#ffffff" fill-opacity="1"><g transform="translate(33.560994, 8.193003)"><g><path d="M 3.78125 0.109375 C 3.113281 0.109375 2.523438 -0.0234375 2.015625 -0.296875 C 1.503906 -0.578125 1.101562 -0.960938 0.8125 -1.453125 C 0.519531 -1.953125 0.375 -2.523438 0.375 -3.171875 C 0.375 -3.828125 0.515625 -4.398438 0.796875 -4.890625 C 1.078125 -5.390625 1.472656 -5.78125 1.984375 -6.0625 C 2.492188 -6.351562 3.082031 -6.5 3.75 -6.5 C 4.414062 -6.507812 5 -6.375 5.5 -6.09375 C 6.007812 -5.8125 6.410156 -5.421875 6.703125 -4.921875 C 7.003906 -4.429688 7.15625 -3.859375 7.15625 -3.203125 C 7.15625 -2.554688 7.007812 -1.984375 6.71875 -1.484375 C 6.4375 -0.992188 6.039062 -0.609375 5.53125 -0.328125 C 5.03125 -0.046875 4.445312 0.0976562 3.78125 0.109375 Z M 1.84375 -3.1875 C 1.84375 -2.8125 1.921875 -2.476562 2.078125 -2.1875 C 2.242188 -1.894531 2.472656 -1.664062 2.765625 -1.5 C 3.066406 -1.34375 3.40625 -1.265625 3.78125 -1.265625 C 4.15625 -1.265625 4.484375 -1.347656 4.765625 -1.515625 C 5.046875 -1.679688 5.265625 -1.910156 5.421875 -2.203125 C 5.585938 -2.492188 5.671875 -2.828125 5.671875 -3.203125 C 5.671875 -3.585938 5.585938 -3.925781 5.421875 -4.21875 C 5.253906 -4.507812 5.023438 -4.734375 4.734375 -4.890625 C 4.453125 -5.046875 4.125 -5.125 3.75 -5.125 C 3.375 -5.125 3.039062 -5.039062 2.75 -4.875 C 2.457031 -4.71875 2.234375 -4.492188 2.078125 -4.203125 C 1.921875 -3.910156 1.84375 -3.570312 1.84375 -3.1875 Z M 1.84375 -3.1875 "/></g></g></g><g fill="#ffffff" fill-opacity="1"><g transform="translate(41.302709, 8.113004)"><g><path d="M 0.734375 0.203125 L 2.453125 -5.921875 L 3.625 -5.59375 L 4.921875 -1.8125 L 7.984375 -4.375 L 9.15625 -4.046875 L 7.4375 2.078125 L 6.046875 1.703125 L 7.078125 -1.984375 L 4.984375 -0.234375 L 4.015625 -0.5 L 3.15625 -3.09375 L 2.125 0.59375 Z M 0.734375 0.203125 "/></g></g></g><g fill="#ffffff" fill-opacity="1"><g transform="translate(49.595818, 10.461001)"><g><path d="M 0.640625 0.40625 L 4.046875 -4.953125 L 5.078125 -4.296875 L 5.234375 -0.296875 L 8.890625 -1.875 L 9.921875 -1.21875 L 6.515625 4.140625 L 5.296875 3.375 L 7.34375 0.140625 L 4.84375 1.21875 L 4 0.671875 L 3.90625 -2.046875 L 1.859375 1.1875 Z M 0.640625 0.40625 "/></g></g></g><g fill="#ffffff" fill-opacity="1"><g transform="translate(56.821025, 15.308156)"><g><path d="M 0.53125 0.5625 L 5.15625 -3.8125 L 8.015625 -0.78125 L 7.125 0.0625 L 5.25 -1.9375 L 4.296875 -1.03125 L 6 0.78125 L 5.109375 1.609375 L 3.40625 -0.203125 L 2.40625 0.75 L 4.34375 2.8125 L 3.453125 3.65625 Z M 0.53125 0.5625 "/></g></g></g><g fill="#ffffff" fill-opacity="1"><g transform="translate(60.835025, 19.531902)"><g><path d="M 0.390625 0.65625 L 5.828125 -2.640625 L 7.234375 -0.3125 C 7.484375 0.09375 7.625 0.492188 7.65625 0.890625 C 7.695312 1.296875 7.625 1.664062 7.4375 2 C 7.257812 2.34375 6.976562 2.628906 6.59375 2.859375 C 6.195312 3.097656 5.796875 3.210938 5.390625 3.203125 C 4.992188 3.203125 4.628906 3.078125 4.296875 2.828125 L 3.09375 5.109375 L 2.21875 3.671875 L 3.34375 1.671875 L 2.84375 0.859375 L 1.140625 1.890625 Z M 3.859375 0.21875 L 4.4375 1.15625 C 4.625 1.46875 4.832031 1.660156 5.0625 1.734375 C 5.300781 1.804688 5.554688 1.757812 5.828125 1.59375 C 6.085938 1.4375 6.242188 1.234375 6.296875 0.984375 C 6.347656 0.742188 6.28125 0.46875 6.09375 0.15625 L 5.515625 -0.78125 Z M 3.859375 0.21875 "/></g></g></g><g fill="#ffffff" fill-opacity="1"><g transform="translate(64.296506, 25.211524)"><g><path d="M 0.96875 3.53125 C 0.78125 2.925781 0.742188 2.34375 0.859375 1.78125 C 0.984375 1.21875 1.238281 0.734375 1.625 0.328125 C 2.019531 -0.078125 2.523438 -0.375 3.140625 -0.5625 C 3.765625 -0.757812 4.351562 -0.800781 4.90625 -0.6875 C 5.46875 -0.570312 5.953125 -0.320312 6.359375 0.0625 C 6.773438 0.457031 7.082031 0.960938 7.28125 1.578125 C 7.4375 2.085938 7.476562 2.585938 7.40625 3.078125 C 7.34375 3.566406 7.175781 4.015625 6.90625 4.421875 C 6.644531 4.828125 6.296875 5.164062 5.859375 5.4375 L 5.40625 4 C 5.707031 3.789062 5.90625 3.507812 6 3.15625 C 6.101562 2.800781 6.097656 2.425781 5.984375 2.03125 C 5.867188 1.6875 5.691406 1.398438 5.453125 1.171875 C 5.222656 0.953125 4.941406 0.8125 4.609375 0.75 C 4.285156 0.695312 3.941406 0.726562 3.578125 0.84375 C 3.210938 0.945312 2.914062 1.113281 2.6875 1.34375 C 2.457031 1.582031 2.304688 1.859375 2.234375 2.171875 C 2.160156 2.492188 2.175781 2.820312 2.28125 3.15625 C 2.40625 3.5625 2.617188 3.882812 2.921875 4.125 C 3.222656 4.363281 3.566406 4.488281 3.953125 4.5 L 4.390625 5.9375 C 3.859375 5.988281 3.367188 5.921875 2.921875 5.734375 C 2.472656 5.546875 2.078125 5.265625 1.734375 4.890625 C 1.390625 4.523438 1.132812 4.070312 0.96875 3.53125 Z M 0.96875 3.53125 "/></g></g></g><g fill="#ffffff" fill-opacity="1"><g transform="translate(66.422364, 32.507192)"><g><path d="M 0.0625 0.765625 L 6.40625 0.296875 L 6.703125 4.453125 L 5.484375 4.546875 L 5.28125 1.828125 L 3.96875 1.921875 L 4.15625 4.390625 L 2.953125 4.484375 L 2.765625 2.015625 L 1.375 2.109375 L 1.578125 4.921875 L 0.359375 5.015625 Z M 0.0625 0.765625 "/></g></g></g><g fill="#ffffff" fill-opacity="1"><g transform="translate(5.782809, 49.853627)"><g><path d="M 0.8125 1.609375 L 3.78125 -1.78125 L 3.953125 -1.4375 L 1.34375 1.546875 L 3.046875 1.375 L 5.265625 1.171875 L 5.453125 1.53125 L 0.96875 1.921875 Z M 0.8125 1.609375 "/></g></g></g><g fill="#ffffff" fill-opacity="1"><g transform="translate(8.09149, 54.242077)"><g><path d="M 1.046875 1.625 C 0.859375 1.363281 0.753906 1.097656 0.734375 0.828125 C 0.710938 0.554688 0.765625 0.296875 0.890625 0.046875 C 1.015625 -0.203125 1.207031 -0.421875 1.46875 -0.609375 C 1.726562 -0.785156 1.992188 -0.890625 2.265625 -0.921875 C 2.546875 -0.953125 2.804688 -0.90625 3.046875 -0.78125 C 3.296875 -0.664062 3.507812 -0.484375 3.6875 -0.234375 C 3.875 0.0351562 3.976562 0.3125 4 0.59375 C 4.019531 0.875 3.957031 1.140625 3.8125 1.390625 C 3.664062 1.640625 3.445312 1.859375 3.15625 2.046875 L 1.5625 -0.234375 C 1.289062 -0.00390625 1.128906 0.257812 1.078125 0.5625 C 1.035156 0.863281 1.113281 1.15625 1.3125 1.4375 C 1.445312 1.632812 1.613281 1.78125 1.8125 1.875 C 2.019531 1.976562 2.238281 2.007812 2.46875 1.96875 L 2.6875 2.296875 C 2.375 2.367188 2.066406 2.34375 1.765625 2.21875 C 1.472656 2.101562 1.234375 1.90625 1.046875 1.625 Z M 1.796875 -0.40625 L 3.203125 1.59375 C 3.472656 1.375 3.625 1.113281 3.65625 0.8125 C 3.6875 0.519531 3.609375 0.234375 3.421875 -0.046875 C 3.222656 -0.316406 2.976562 -0.484375 2.6875 -0.546875 C 2.394531 -0.617188 2.097656 -0.570312 1.796875 -0.40625 Z M 1.796875 -0.40625 "/></g></g></g><g fill="#ffffff" fill-opacity="1"><g transform="translate(10.921218, 58.170065)"><g><path d="M 0.421875 0.4375 L 2.671875 -1.671875 L 2.875 -1.453125 L 2.453125 -1.015625 C 2.703125 -1.078125 2.9375 -1.070312 3.15625 -1 C 3.375 -0.925781 3.566406 -0.796875 3.734375 -0.609375 C 4.003906 -0.328125 4.125 -0.015625 4.09375 0.328125 C 4.070312 0.679688 3.898438 1.007812 3.578125 1.3125 L 2.328125 2.484375 L 2.09375 2.234375 L 3.3125 1.09375 C 3.570312 0.851562 3.71875 0.59375 3.75 0.3125 C 3.78125 0.0390625 3.6875 -0.207031 3.46875 -0.4375 C 3.332031 -0.582031 3.164062 -0.679688 2.96875 -0.734375 C 2.78125 -0.785156 2.585938 -0.78125 2.390625 -0.71875 C 2.191406 -0.664062 2 -0.554688 1.8125 -0.390625 L 0.65625 0.703125 Z M 0.421875 0.4375 "/></g></g></g><g fill="#ffffff" fill-opacity="1"><g transform="translate(14.360733, 61.69414)"><g><path d="M 1.4375 1.203125 C 1.1875 0.984375 1.050781 0.75 1.03125 0.5 C 1.007812 0.25 1.113281 -0.00390625 1.34375 -0.265625 L 2.421875 -1.578125 L 1.90625 -2 L 2.109375 -2.234375 L 2.40625 -1.984375 C 2.5 -1.910156 2.578125 -1.875 2.640625 -1.875 C 2.703125 -1.882812 2.773438 -1.929688 2.859375 -2.015625 L 3.171875 -2.359375 L 3.375 -2.1875 L 2.890625 -1.59375 L 3.71875 -0.90625 L 3.515625 -0.671875 L 2.6875 -1.359375 L 1.609375 -0.0625 C 1.453125 0.125 1.375 0.300781 1.375 0.46875 C 1.375 0.644531 1.460938 0.804688 1.640625 0.953125 L 1.984375 1.234375 L 1.78125 1.484375 Z M 1.4375 1.203125 "/></g></g></g><g fill="#ffffff" fill-opacity="1"><g transform="translate(17.133669, 63.974189)"><g><path d="M 1.296875 0.90625 C 0.992188 0.707031 0.800781 0.484375 0.71875 0.234375 C 0.644531 -0.015625 0.679688 -0.257812 0.828125 -0.5 C 0.984375 -0.726562 1.179688 -0.859375 1.421875 -0.890625 C 1.671875 -0.921875 1.925781 -0.851562 2.1875 -0.6875 L 3.328125 0.046875 L 3.453125 -0.140625 C 3.597656 -0.359375 3.640625 -0.578125 3.578125 -0.796875 C 3.515625 -1.023438 3.363281 -1.21875 3.125 -1.375 C 2.925781 -1.5 2.726562 -1.5625 2.53125 -1.5625 C 2.332031 -1.5625 2.15625 -1.5 2 -1.375 L 1.703125 -1.5625 C 1.910156 -1.757812 2.160156 -1.863281 2.453125 -1.875 C 2.742188 -1.894531 3.023438 -1.816406 3.296875 -1.640625 C 3.515625 -1.492188 3.675781 -1.328125 3.78125 -1.140625 C 3.894531 -0.953125 3.945312 -0.757812 3.9375 -0.5625 C 3.9375 -0.363281 3.875 -0.160156 3.75 0.046875 L 2.65625 1.71875 L 2.421875 1.578125 L 2.6875 1.109375 C 2.476562 1.191406 2.25 1.21875 2 1.1875 C 1.757812 1.15625 1.523438 1.0625 1.296875 0.90625 Z M 1.109375 -0.3125 C 1.015625 -0.15625 1 0.00390625 1.0625 0.171875 C 1.125 0.347656 1.265625 0.503906 1.484375 0.640625 C 1.679688 0.773438 1.878906 0.851562 2.078125 0.875 C 2.285156 0.90625 2.476562 0.878906 2.65625 0.796875 C 2.832031 0.710938 2.976562 0.585938 3.09375 0.421875 L 3.171875 0.296875 L 2.046875 -0.421875 C 1.859375 -0.546875 1.679688 -0.59375 1.515625 -0.5625 C 1.347656 -0.539062 1.210938 -0.457031 1.109375 -0.3125 Z M 1.109375 -0.3125 "/></g></g></g><g fill="#ffffff" fill-opacity="1"><g transform="translate(21.123636, 66.466184)"><g><path d="M 1.484375 0.796875 C 1.128906 0.628906 0.882812 0.410156 0.75 0.140625 C 0.625 -0.117188 0.625 -0.394531 0.75 -0.6875 L 1.0625 -0.53125 C 0.976562 -0.320312 0.976562 -0.128906 1.0625 0.046875 C 1.15625 0.222656 1.335938 0.375 1.609375 0.5 C 1.859375 0.625 2.070312 0.671875 2.25 0.640625 C 2.4375 0.617188 2.566406 0.535156 2.640625 0.390625 C 2.703125 0.234375 2.6875 0.078125 2.59375 -0.078125 C 2.507812 -0.234375 2.332031 -0.40625 2.0625 -0.59375 C 1.726562 -0.820312 1.503906 -1.046875 1.390625 -1.265625 C 1.285156 -1.484375 1.285156 -1.695312 1.390625 -1.90625 C 1.492188 -2.132812 1.671875 -2.269531 1.921875 -2.3125 C 2.179688 -2.363281 2.476562 -2.3125 2.8125 -2.15625 C 3.144531 -2 3.375 -1.800781 3.5 -1.5625 C 3.625 -1.320312 3.628906 -1.0625 3.515625 -0.78125 L 3.203125 -0.921875 C 3.285156 -1.117188 3.28125 -1.296875 3.1875 -1.453125 C 3.09375 -1.617188 2.925781 -1.765625 2.6875 -1.890625 C 2.445312 -1.992188 2.238281 -2.03125 2.0625 -2 C 1.894531 -1.976562 1.773438 -1.894531 1.703125 -1.75 C 1.628906 -1.601562 1.640625 -1.457031 1.734375 -1.3125 C 1.828125 -1.175781 2.007812 -1.003906 2.28125 -0.796875 C 2.925781 -0.328125 3.148438 0.117188 2.953125 0.546875 C 2.835938 0.773438 2.644531 0.914062 2.375 0.96875 C 2.113281 1.019531 1.816406 0.960938 1.484375 0.796875 Z M 1.484375 0.796875 "/></g></g></g><g fill="#ffffff" fill-opacity="1"><g transform="translate(24.954637, 68.198976)"><g/></g></g><g fill="#ffffff" fill-opacity="1"><g transform="translate(27.335907, 69.069388)"><g><path d="M 1.515625 0.421875 C 1.171875 0.335938 0.914062 0.191406 0.75 -0.015625 C 0.59375 -0.222656 0.550781 -0.460938 0.625 -0.734375 C 0.6875 -1.003906 0.828125 -1.195312 1.046875 -1.3125 C 1.273438 -1.425781 1.539062 -1.441406 1.84375 -1.359375 L 3.171875 -1.03125 L 3.234375 -1.234375 C 3.296875 -1.492188 3.257812 -1.71875 3.125 -1.90625 C 3 -2.101562 2.789062 -2.238281 2.5 -2.3125 C 2.28125 -2.363281 2.070312 -2.351562 1.875 -2.28125 C 1.6875 -2.21875 1.535156 -2.109375 1.421875 -1.953125 L 1.09375 -2.03125 C 1.238281 -2.28125 1.441406 -2.457031 1.703125 -2.5625 C 1.972656 -2.675781 2.265625 -2.691406 2.578125 -2.609375 C 2.835938 -2.546875 3.046875 -2.445312 3.203125 -2.3125 C 3.367188 -2.175781 3.484375 -2.007812 3.546875 -1.8125 C 3.609375 -1.625 3.613281 -1.410156 3.5625 -1.171875 L 3.078125 0.765625 L 2.8125 0.703125 L 2.90625 0.171875 C 2.726562 0.316406 2.519531 0.410156 2.28125 0.453125 C 2.039062 0.503906 1.785156 0.492188 1.515625 0.421875 Z M 0.96875 -0.65625 C 0.914062 -0.476562 0.945312 -0.316406 1.0625 -0.171875 C 1.1875 -0.0234375 1.367188 0.078125 1.609375 0.140625 C 1.835938 0.191406 2.050781 0.195312 2.25 0.15625 C 2.457031 0.113281 2.632812 0.03125 2.78125 -0.09375 C 2.925781 -0.226562 3.019531 -0.394531 3.0625 -0.59375 L 3.109375 -0.734375 L 1.796875 -1.0625 C 1.585938 -1.113281 1.40625 -1.101562 1.25 -1.03125 C 1.101562 -0.957031 1.007812 -0.832031 0.96875 -0.65625 Z M 0.96875 -0.65625 "/></g></g></g><g fill="#ffffff" fill-opacity="1"><g transform="translate(31.879723, 70.090749)"><g><path d="M 0.609375 0.078125 L 1.21875 -4.296875 L 1.5625 -4.234375 L 0.953125 0.140625 Z M 0.609375 0.078125 "/></g></g></g><g fill="#ffffff" fill-opacity="1"><g transform="translate(34.3121, 70.4018)"><g/></g></g><g fill="#ffffff" fill-opacity="1"><g transform="translate(36.853658, 70.595211)"><g><path d="M 2.265625 -0.015625 C 1.984375 -0.00390625 1.726562 -0.0507812 1.5 -0.15625 C 1.269531 -0.269531 1.082031 -0.425781 0.9375 -0.625 L 1.015625 1.140625 L 0.65625 1.15625 L 0.484375 -3.109375 L 0.78125 -3.109375 L 0.828125 -2.515625 C 0.953125 -2.734375 1.125 -2.90625 1.34375 -3.03125 C 1.570312 -3.164062 1.832031 -3.238281 2.125 -3.25 C 2.4375 -3.269531 2.710938 -3.210938 2.953125 -3.078125 C 3.191406 -2.953125 3.382812 -2.769531 3.53125 -2.53125 C 3.675781 -2.300781 3.757812 -2.03125 3.78125 -1.71875 C 3.789062 -1.40625 3.734375 -1.117188 3.609375 -0.859375 C 3.484375 -0.609375 3.304688 -0.410156 3.078125 -0.265625 C 2.847656 -0.117188 2.578125 -0.0351562 2.265625 -0.015625 Z M 0.890625 -1.59375 C 0.898438 -1.34375 0.957031 -1.117188 1.0625 -0.921875 C 1.175781 -0.722656 1.332031 -0.570312 1.53125 -0.46875 C 1.726562 -0.375 1.953125 -0.332031 2.203125 -0.34375 C 2.460938 -0.351562 2.679688 -0.414062 2.859375 -0.53125 C 3.046875 -0.65625 3.191406 -0.816406 3.296875 -1.015625 C 3.398438 -1.222656 3.445312 -1.453125 3.4375 -1.703125 C 3.425781 -1.953125 3.359375 -2.171875 3.234375 -2.359375 C 3.117188 -2.546875 2.960938 -2.6875 2.765625 -2.78125 C 2.578125 -2.882812 2.351562 -2.929688 2.09375 -2.921875 C 1.84375 -2.910156 1.625 -2.84375 1.4375 -2.71875 C 1.25 -2.601562 1.109375 -2.445312 1.015625 -2.25 C 0.921875 -2.0625 0.878906 -1.84375 0.890625 -1.59375 Z M 0.890625 -1.59375 "/></g></g></g><g fill="#ffffff" fill-opacity="1"><g transform="translate(42.045862, 70.28853)"><g><path d="M 1.953125 -0.296875 C 1.640625 -0.234375 1.347656 -0.242188 1.078125 -0.328125 C 0.816406 -0.421875 0.59375 -0.570312 0.40625 -0.78125 C 0.226562 -1 0.109375 -1.265625 0.046875 -1.578125 C -0.00390625 -1.890625 0.0078125 -2.175781 0.09375 -2.4375 C 0.1875 -2.707031 0.335938 -2.929688 0.546875 -3.109375 C 0.765625 -3.285156 1.03125 -3.40625 1.34375 -3.46875 C 1.65625 -3.53125 1.941406 -3.515625 2.203125 -3.421875 C 2.460938 -3.335938 2.6875 -3.1875 2.875 -2.96875 C 3.0625 -2.757812 3.179688 -2.5 3.234375 -2.1875 C 3.296875 -1.875 3.28125 -1.582031 3.1875 -1.3125 C 3.09375 -1.050781 2.941406 -0.832031 2.734375 -0.65625 C 2.523438 -0.476562 2.265625 -0.359375 1.953125 -0.296875 Z M 0.375 -1.640625 C 0.425781 -1.390625 0.523438 -1.175781 0.671875 -1 C 0.816406 -0.832031 0.992188 -0.710938 1.203125 -0.640625 C 1.410156 -0.578125 1.640625 -0.570312 1.890625 -0.625 C 2.128906 -0.664062 2.332031 -0.753906 2.5 -0.890625 C 2.675781 -1.035156 2.796875 -1.210938 2.859375 -1.421875 C 2.921875 -1.640625 2.925781 -1.875 2.875 -2.125 C 2.832031 -2.375 2.742188 -2.582031 2.609375 -2.75 C 2.472656 -2.914062 2.296875 -3.035156 2.078125 -3.109375 C 1.867188 -3.179688 1.644531 -3.195312 1.40625 -3.15625 C 1.15625 -3.101562 0.945312 -3.003906 0.78125 -2.859375 C 0.613281 -2.710938 0.492188 -2.535156 0.421875 -2.328125 C 0.347656 -2.117188 0.332031 -1.890625 0.375 -1.640625 Z M 0.375 -1.640625 "/></g></g></g><g fill="#ffffff" fill-opacity="1"><g transform="translate(46.837267, 69.265926)"><g><path d="M 0.578125 -0.1875 L -0.375 -3.109375 L -0.09375 -3.203125 L 0.15625 -2.5625 C 0.1875 -2.820312 0.269531 -3.03125 0.40625 -3.1875 C 0.539062 -3.34375 0.75 -3.46875 1.03125 -3.5625 L 1.265625 -3.640625 L 1.375 -3.34375 L 1.125 -3.265625 C 0.800781 -3.160156 0.578125 -2.972656 0.453125 -2.703125 C 0.328125 -2.441406 0.335938 -2.09375 0.484375 -1.65625 L 0.921875 -0.296875 Z M 0.578125 -0.1875 "/></g></g></g><g fill="#ffffff" fill-opacity="1"><g transform="translate(50.143056, 68.134913)"><g/></g></g><g fill="#ffffff" fill-opacity="1"><g transform="translate(52.580899, 67.202587)"><g><path d="M 0.515625 -0.3125 L -1.0625 -2.953125 L -0.796875 -3.109375 L -0.53125 -2.703125 C -0.539062 -3.140625 -0.332031 -3.484375 0.09375 -3.734375 C 0.320312 -3.867188 0.550781 -3.9375 0.78125 -3.9375 C 1.019531 -3.9375 1.238281 -3.851562 1.4375 -3.6875 C 1.394531 -3.945312 1.429688 -4.179688 1.546875 -4.390625 C 1.660156 -4.609375 1.835938 -4.785156 2.078125 -4.921875 C 2.398438 -5.117188 2.722656 -5.171875 3.046875 -5.078125 C 3.378906 -4.992188 3.660156 -4.765625 3.890625 -4.390625 L 4.796875 -2.875 L 4.484375 -2.6875 L 3.59375 -4.15625 C 3.414062 -4.457031 3.203125 -4.644531 2.953125 -4.71875 C 2.703125 -4.800781 2.453125 -4.765625 2.203125 -4.609375 C 1.941406 -4.453125 1.785156 -4.238281 1.734375 -3.96875 C 1.679688 -3.707031 1.742188 -3.425781 1.921875 -3.125 L 2.796875 -1.671875 L 2.5 -1.5 L 1.609375 -2.96875 C 1.429688 -3.269531 1.21875 -3.457031 0.96875 -3.53125 C 0.726562 -3.613281 0.476562 -3.578125 0.21875 -3.421875 C -0.0390625 -3.265625 -0.191406 -3.054688 -0.234375 -2.796875 C -0.285156 -2.535156 -0.222656 -2.253906 -0.046875 -1.953125 L 0.828125 -0.5 Z M 0.515625 -0.3125 "/></g></g></g><g fill="#ffffff" fill-opacity="1"><g transform="translate(58.645473, 63.343556)"><g><path d="M 1.5 -1.203125 C 1.257812 -0.992188 1.003906 -0.863281 0.734375 -0.8125 C 0.472656 -0.757812 0.210938 -0.78125 -0.046875 -0.875 C -0.304688 -0.96875 -0.539062 -1.140625 -0.75 -1.390625 C -0.957031 -1.617188 -1.085938 -1.867188 -1.140625 -2.140625 C -1.203125 -2.421875 -1.1875 -2.691406 -1.09375 -2.953125 C -1 -3.222656 -0.835938 -3.457031 -0.609375 -3.65625 C -0.359375 -3.875 -0.0976562 -4.003906 0.171875 -4.046875 C 0.453125 -4.085938 0.722656 -4.050781 0.984375 -3.9375 C 1.253906 -3.820312 1.5 -3.628906 1.71875 -3.359375 L -0.390625 -1.53125 C -0.140625 -1.269531 0.132812 -1.132812 0.4375 -1.125 C 0.75 -1.113281 1.035156 -1.222656 1.296875 -1.453125 C 1.484375 -1.609375 1.613281 -1.789062 1.6875 -2 C 1.757812 -2.21875 1.765625 -2.4375 1.703125 -2.65625 L 2 -2.90625 C 2.101562 -2.601562 2.109375 -2.296875 2.015625 -1.984375 C 1.929688 -1.679688 1.757812 -1.421875 1.5 -1.203125 Z M -0.578125 -1.75 L 1.28125 -3.34375 C 1.007812 -3.59375 0.722656 -3.71875 0.421875 -3.71875 C 0.128906 -3.726562 -0.144531 -3.625 -0.40625 -3.40625 C -0.65625 -3.1875 -0.796875 -2.921875 -0.828125 -2.609375 C -0.867188 -2.304688 -0.785156 -2.019531 -0.578125 -1.75 Z M -0.578125 -1.75 "/></g></g></g><g fill="#ffffff" fill-opacity="1"><g transform="translate(62.255873, 60.118798)"><g><path d="M 0.40625 -0.453125 L -1.921875 -2.46875 L -1.734375 -2.703125 L -1.265625 -2.328125 C -1.359375 -2.578125 -1.378906 -2.8125 -1.328125 -3.03125 C -1.273438 -3.257812 -1.171875 -3.46875 -1.015625 -3.65625 C -0.753906 -3.957031 -0.445312 -4.113281 -0.09375 -4.125 C 0.257812 -4.132812 0.609375 -3.988281 0.953125 -3.6875 L 2.234375 -2.578125 L 2 -2.3125 L 0.734375 -3.40625 C 0.460938 -3.632812 0.191406 -3.75 -0.078125 -3.75 C -0.347656 -3.757812 -0.585938 -3.648438 -0.796875 -3.421875 C -0.929688 -3.265625 -1.015625 -3.082031 -1.046875 -2.875 C -1.078125 -2.675781 -1.050781 -2.484375 -0.96875 -2.296875 C -0.882812 -2.109375 -0.75 -1.9375 -0.5625 -1.78125 L 0.640625 -0.734375 Z M 0.40625 -0.453125 "/></g></g></g><g fill="#ffffff" fill-opacity="1"><g transform="translate(65.45007, 56.321526)"><g><path d="M 1.125 -1.609375 C 0.957031 -1.347656 0.75 -1.148438 0.5 -1.015625 C 0.25 -0.878906 -0.0078125 -0.820312 -0.28125 -0.84375 C -0.5625 -0.863281 -0.835938 -0.957031 -1.109375 -1.125 C -1.378906 -1.300781 -1.578125 -1.507812 -1.703125 -1.75 C -1.835938 -2 -1.894531 -2.265625 -1.875 -2.546875 C -1.851562 -2.828125 -1.757812 -3.097656 -1.59375 -3.359375 C -1.414062 -3.628906 -1.203125 -3.828125 -0.953125 -3.953125 C -0.710938 -4.085938 -0.453125 -4.148438 -0.171875 -4.140625 C 0.0976562 -4.128906 0.367188 -4.035156 0.640625 -3.859375 C 0.910156 -3.691406 1.109375 -3.476562 1.234375 -3.21875 C 1.367188 -2.96875 1.425781 -2.703125 1.40625 -2.421875 C 1.394531 -2.148438 1.300781 -1.878906 1.125 -1.609375 Z M -0.921875 -1.40625 C -0.703125 -1.269531 -0.484375 -1.195312 -0.265625 -1.1875 C -0.046875 -1.175781 0.160156 -1.222656 0.359375 -1.328125 C 0.554688 -1.429688 0.722656 -1.585938 0.859375 -1.796875 C 0.992188 -2.003906 1.066406 -2.21875 1.078125 -2.4375 C 1.085938 -2.65625 1.039062 -2.859375 0.9375 -3.046875 C 0.832031 -3.242188 0.671875 -3.410156 0.453125 -3.546875 C 0.234375 -3.679688 0.015625 -3.753906 -0.203125 -3.765625 C -0.421875 -3.785156 -0.625 -3.742188 -0.8125 -3.640625 C -1.007812 -3.546875 -1.175781 -3.394531 -1.3125 -3.1875 C -1.445312 -2.976562 -1.519531 -2.757812 -1.53125 -2.53125 C -1.550781 -2.3125 -1.507812 -2.101562 -1.40625 -1.90625 C -1.300781 -1.707031 -1.140625 -1.539062 -0.921875 -1.40625 Z M -0.921875 -1.40625 "/></g></g></g><g fill="#ffffff" fill-opacity="1"><g transform="translate(68.011402, 52.145045)"><g><path d="M 0.265625 -0.546875 L -2.515625 -1.875 L -2.390625 -2.140625 L -1.75 -1.875 C -1.925781 -2.070312 -2.023438 -2.273438 -2.046875 -2.484375 C -2.066406 -2.703125 -2.007812 -2.941406 -1.875 -3.203125 L -1.765625 -3.421875 L -1.484375 -3.296875 L -1.609375 -3.0625 C -1.753906 -2.757812 -1.769531 -2.472656 -1.65625 -2.203125 C -1.550781 -1.929688 -1.285156 -1.691406 -0.859375 -1.484375 L 0.421875 -0.875 Z M 0.265625 -0.546875 "/></g></g></g></svg>